<svg id="_x33_0" enable-background="new 0 0 64 64" height="512" viewBox="0 0 64 64" width="512" xmlns="http://www.w3.org/2000/svg"><g><g><g><path d="m28.829 58c-2.112 0-3.829-1.717-3.829-3.829 0-1.022.398-1.984 1.122-2.707l6.343-6.343c.723-.723 1.684-1.121 2.706-1.121 2.112 0 3.829 1.717 3.829 3.829 0 1.022-.398 1.984-1.122 2.707l-6.343 6.343c-.722.723-1.684 1.121-2.706 1.121z" fill="#f0bc5e"/></g></g><g><g><path d="m12 13c-1.654 0-3-1.346-3-3s1.346-3 3-3 3 1.346 3 3-1.346 3-3 3z" fill="#f0bc5e"/></g></g><g><g><path d="m52 19c-1.654 0-3-1.346-3-3s1.346-3 3-3 3 1.346 3 3-1.346 3-3 3z" fill="#f0bc5e"/></g></g><g><path d="m31 47.172h2v7.657h-2z" transform="matrix(.707 -.707 .707 .707 -26.69 37.565)"/><path d="m28 44h2v2h-2z"/><path d="m24 48h2v2h-2z"/><path d="m34 57h2v2h-2z"/><path d="m38 53h2v2h-2z"/><path d="m31 19h-2c0 .551-.449 1-1 1s-1-.449-1-1h-2c0 1.654 1.346 3 3 3s3-1.346 3-3z"/><path d="m36 22c1.654 0 3-1.346 3-3h-2c0 .551-.449 1-1 1s-1-.449-1-1h-2c0 1.654 1.346 3 3 3z"/><path d="m29 26c0 1.654 1.346 3 3 3s3-1.346 3-3h-2c0 .551-.449 1-1 1s-1-.449-1-1z"/><path d="m47.238 37.105-6.497-1.5c-1.146-.264-2.037-1.181-2.267-2.334l-.423-2.116c2.127-1.475 3.599-3.663 4.167-6.155h.782c2.206 0 4-1.794 4-4 0-.819-.249-1.581-.674-2.215l.55-3.855c.082-.569.124-1.15.124-1.726 0-.398-.028-.824-.078-1.282.046-.302.078-.608.078-.922v-.117c0-1.814-.827-3.438-2.122-4.518-2.281-3.359-6.023-5.365-10.082-5.365h-5.593c-6.728 0-12.203 5.475-12.203 12.204 0 .576.042 1.157.123 1.726l.55 3.855c-.424.634-.673 1.396-.673 2.215 0 2.206 1.794 4 4 4h.784c.567 2.492 2.038 4.68 4.165 6.155l-.423 2.117c-.23 1.153-1.121 2.07-2.268 2.334l-6.496 1.5c-2.821.651-5.258 2.336-6.864 4.744-1.242 1.862-1.898 4.03-1.898 6.27v14.88h48v-14.88c0-2.239-.656-4.407-1.898-6.27-1.606-2.409-4.043-4.094-6.864-4.745zm-4.238-20.105h-.069c.004-.11.011-.22.014-.33.661-.227 1.271-.565 1.805-.994l-.232 1.627c-.469-.193-.98-.303-1.518-.303zm0 6h-.495l.092-.92c.102-1.02.185-2.049.248-3.08h.155c1.103 0 2 .897 2 2s-.897 2-2 2zm-13.796-20h5.593c2.226 0 4.336.726 6.067 2.014-2.142.073-3.864 1.827-3.864 3.986 0 2.206 1.794 4 4 4h2v-2h-2c-1.103 0-2-.897-2-2s.896-2 1.998-2h.117c2.142 0 3.885 1.742 3.885 3.883v.117c0 2.206-1.794 4-4 4h-7.734c-1.249 0-2.266-1.016-2.266-2.266 0-.463.181-.899.508-1.227s.763-.507 1.227-.507h2.265v-2h-2.264-.001c-.997 0-1.935.388-2.64 1.093-.706.706-1.095 1.644-1.095 2.641 0 .091.021.176.027.266h-3.261c-2.366 0-4.319 1.737-4.688 4h-.078c-.538 0-1.049.11-1.518.303l-.379-2.657c-.068-.476-.103-.961-.103-1.442 0-5.627 4.577-10.204 10.204-10.204zm-10.204 18c0-1.103.897-2 2-2h.101l.397 4h-.498c-1.103 0-2-.897-2-2zm4.56 2.526-.539-5.418c-.014-.114-.021-.228-.021-.342 0-1.525 1.241-2.766 2.766-2.766h3.9c.756 1.197 2.082 2 3.6 2h7.664c-.062 1.631-.161 3.267-.323 4.88l-.165 1.646c-.248 2.48-1.58 4.696-3.654 6.079-1.368.913-2.96 1.395-4.603 1.395h-.37c-1.644 0-3.235-.482-4.602-1.393-2.075-1.383-3.406-3.6-3.653-6.081zm9.44 17.487.819.15c4.741.871 8.181 5.008 8.181 9.837 0 5.514-4.486 10-10 10s-10-4.486-10-10c0-4.829 3.44-8.966 8.181-9.836l.819-.151v-8.073c.271.021.54.06.814.06h.37c.274 0 .543-.038.815-.06zm-15 19.987v-13.303l-2.168-3.252-1.664 1.109 1.832 2.749v12.697h-6v-12.88c0-1.843.541-3.627 1.563-5.161 1.321-1.982 3.328-3.369 5.649-3.904l6.496-1.5c1.911-.441 3.395-1.969 3.779-3.891l.301-1.506c.396.169.798.322 1.212.439v6.779c-5.263 1.35-9 6.111-9 11.624 0 4.171 2.142 7.849 5.381 10zm36 0h-6v-12.697l1.832-2.748-1.664-1.109-2.168 3.251v13.303h-7.381c3.239-2.151 5.381-5.829 5.381-10 0-5.513-3.737-10.274-9-11.624l-.001-6.779c.414-.118.816-.27 1.213-.44l.301 1.506c.384 1.923 1.868 3.451 3.778 3.892l6.497 1.5c2.321.536 4.328 1.922 5.649 3.904 1.022 1.533 1.563 3.318 1.563 5.161z"/><path d="m1.293 17.707 2.228 2.228c.339-.589.825-1.075 1.414-1.414l-2.228-2.228z"/><path d="m14.707 28.293-2.228-2.228c-.339.589-.825 1.075-1.414 1.414l2.228 2.228z"/><path d="m9.687 19.273 1.145-1.718-1.664-1.109-1.17 1.754c.571.184 1.101.485 1.537.922z"/><path d="m12.8 23.002 1.755-1.17-1.109-1.664-1.718 1.145.151.151c.436.437.738.966.921 1.538z"/><path d="m3.2 22.998-1.755 1.17 1.109 1.664 1.718-1.145-.151-.151c-.436-.437-.738-.966-.921-1.538z"/><path d="m8.002 27.8c-.571-.184-1.101-.485-1.537-.922l-.151-.151-1.145 1.718 1.664 1.109z"/><path d="m59.065 25.521c.589.339 1.075.825 1.414 1.414l2.228-2.228-1.414-1.414z"/><path d="m52.935 34.479c-.589-.339-1.075-.825-1.414-1.414l-2.228 2.228 1.414 1.414z"/><path d="m54.464 26.122c.437-.437.966-.738 1.537-.922l-1.17-1.755-1.664 1.109 1.145 1.718z"/><path d="m52.122 28.464.151-.151-1.718-1.145-1.109 1.664 1.755 1.17c.182-.572.484-1.101.921-1.538z"/><path d="m59.878 31.536-.151.151 1.718 1.145 1.109-1.664-1.755-1.17c-.182.572-.484 1.101-.921 1.538z"/><path d="m57.536 33.878c-.437.437-.966.738-1.537.922l1.17 1.755 1.664-1.109-1.145-1.718z"/><path d="m5.172 35h5.657v2h-5.657z" transform="matrix(.707 -.707 .707 .707 -23.113 16.201)"/><path d="m59 5.172h2v5.657h-2z" transform="matrix(.707 -.707 .707 .707 11.917 44.77)"/></g><g><g><path d="m9.171 28c-1.022 0-1.984-.398-2.707-1.122l-2.343-2.343c-.723-.722-1.121-1.684-1.121-2.706 0-2.112 1.717-3.829 3.829-3.829 1.022 0 1.984.398 2.707 1.122l2.343 2.343c.723.723 1.121 1.684 1.121 2.706 0 2.112-1.717 3.829-3.829 3.829z" fill="#f0bc5e"/></g></g><g><g><path d="m54.829 35c-2.112 0-3.829-1.717-3.829-3.829 0-1.022.398-1.984 1.122-2.707l2.343-2.343c.723-.723 1.684-1.121 2.706-1.121 2.112 0 3.829 1.717 3.829 3.829 0 1.022-.398 1.984-1.122 2.707l-2.343 2.343c-.722.723-1.684 1.121-2.706 1.121z" fill="#f0bc5e"/></g></g></g></svg>