<?xml version="1.0" encoding="utf-8"?>
<!-- Generator: Adobe Illustrator 19.2.1, SVG Export Plug-In . SVG Version: 6.00 Build 0)  -->
<svg version="1.1" id="Layer_1" xmlns="http://www.w3.org/2000/svg" xmlns:xlink="http://www.w3.org/1999/xlink" x="0px" y="0px"
	 viewBox="0 0 64 64" style="enable-background:new 0 0 64 64;" xml:space="preserve">
<style type="text/css">
	.st0{fill:#FFFFFF;}
</style>
<path class="st0" d="M32,2C15.4,2,2,15.5,2,32c0,15,11.1,27.5,25.5,29.6l1.6,0.2V38.2H22v-4.8h7.1v-6.4c0-3.9,0.9-6.5,2.5-8.1
	s3.9-2.4,7.1-2.4c2.6,0,3.6,0.2,4.5,0.3v3.9h-3.3c-1.9,0-3.4,1.1-4.3,2.5c-0.8,1.4-1.1,3.1-1.1,4.8v5.5h8.3l-0.7,4.8h-7.6v23.7
	l1.5-0.2C50.7,59.7,62,47.2,62,32C62,15.5,48.6,2,32,2z M32,4.7c15.1,0,27.3,12.2,27.3,27.3c0,13.3-9.5,24.2-22,26.6V41h7.2L46,30.7
	h-8.8V28c0-1.4,0.3-2.7,0.7-3.4s0.9-1.1,1.9-1.1h6.1v-9.1l-1.2-0.2c-0.8-0.1-2.7-0.4-6.1-0.4c-3.7,0-6.9,1-9,3.3
	c-2.2,2.3-3.3,5.7-3.3,10v3.6h-7.1V41h7.1v17.6C14,56,4.7,45.1,4.7,32C4.7,16.9,16.9,4.7,32,4.7z"/>
</svg>
