<?xml version="1.0" encoding="utf-8"?>
<!-- Generator: Adobe Illustrator 19.2.1, SVG Export Plug-In . SVG Version: 6.00 Build 0)  -->
<svg version="1.1" xmlns="http://www.w3.org/2000/svg" xmlns:xlink="http://www.w3.org/1999/xlink" x="0px" y="0px"
	 viewBox="0 0 160 160" style="enable-background:new 0 0 160 160;" xml:space="preserve">
<style type="text/css">
	.st0{fill:url(#SVGID_1_);}
	.st1{fill:none;stroke:#4015FF;stroke-width:4;stroke-miterlimit:10;}
	.st2{fill:#FF7473;}
	.st3{fill:#DB3DF2;}
	.st4{fill:#2CDB8F;}
	.st5{fill:#E5E525;stroke:#4015FF;stroke-width:4;stroke-miterlimit:10;}
	.st6{fill:#E5E525;}
	.st7{fill:#4015FF;}
	.st8{fill:url(#SVGID_2_);}
	.st9{fill:#11ED89;}
	.st10{fill:#FFA076;}
	.st11{fill:#A63FEF;}
	.st12{fill:#F43DA6;}
	.st13{fill:#E5DB23;}
</style>
<g id="Layer_1">
	<radialGradient id="SVGID_1_" cx="-100" cy="80.0045" r="80" gradientUnits="userSpaceOnUse">
		<stop  offset="0" style="stop-color:#AAAFFF;stop-opacity:0.5"/>
		<stop  offset="1" style="stop-color:#FFFFFF"/>
	</radialGradient>
	<circle class="st0" cx="-100" cy="80" r="80"/>
	
		<ellipse transform="matrix(0.9863 -0.1652 0.1652 0.9863 -12.0568 -17.0498)" class="st1" cx="-108.6" cy="64" rx="39.7" ry="39.7"/>
	<circle class="st2" cx="-44.2" cy="44.1" r="6"/>
	<circle class="st3" cx="-62.3" cy="142.6" r="6"/>
	<circle class="st4" cx="-160.6" cy="107.7" r="4.6"/>
	<path class="st5" d="M-53.9,117.7c1.1,2.7,0.9,5.7-0.8,7.9c-2.3,2.9-6.8,3.8-10.7,1.7c-6.6-8-13.3-15.9-19.9-23.9
		c1.9-0.9,4.3-2.4,6.8-4.5c2-1.8,3.5-3.5,4.6-5C-67.2,101.8-60.6,109.8-53.9,117.7z"/>
	<g>
		<g>
			<path class="st6" d="M-118.3,71.6c-6,0-11-3.7-13.5-6c-1.7-1.5-3.2-3.4-4.7-5.3c-0.9-1.2-1.8-2.2-2.7-3.3
				c-0.4-0.5-0.6-1.2-0.3-1.8c0.3-0.6,0.8-0.9,1.5-0.9c0,0,0.1,0,0.1,0c0.4,0,0.8,0,1.3,0c2.3,0,4.7-0.4,6.7-1
				c0.7-0.3,1.5-0.5,2.2-0.8c3.5-1.3,7.2-2.6,10.9-2.8c0.6,0,1.2-0.1,1.9-0.1c5,0,9.8,1.2,12.8,3.3c0.3,0.2,0.4,0.5,0.4,0.9
				c0,0.3-0.2,0.7-0.5,0.8c-2.4,1.5-4.9,3.1-7.1,5.2c-0.2,0.2-0.4,0.3-0.7,0.3c-0.1,0-0.1,0-0.2,0c0,0-0.1,0-0.1,0
				c0.1,0.3,0,0.7-0.2,0.9c-1.1,1.2-2,2.5-2.8,3.9c-0.9,1.7-1.5,3.5-1.8,5.5c-0.1,0.4-0.4,0.7-0.8,0.8c-0.8,0.2-1.4,0.3-1.9,0.3
				C-118,71.6-118.2,71.6-118.3,71.6C-118.3,71.6-118.3,71.6-118.3,71.6z"/>
			<path class="st7" d="M-115,50.8c4,0,8.9,0.9,12.3,3.2c-2.6,1.6-5.1,3.3-7.3,5.3c-0.8-0.2-1.7-0.2-2.5-0.2c-0.3,0-0.7,0-1,0
				c-1.9,0.2-3.9,0.9-5.8,1.2c0.2,0,0.4,0,0.6,0c1,0,2.1,0,3.1,0c1,0,1.9,0,2.9,0.1c0.5,0,1.1,0.1,1.6,0.2c-1.1,1.2-2.1,2.5-2.9,4.1
				c-1,1.8-1.6,3.7-2,5.8c-0.6,0.1-1.2,0.2-1.8,0.3c-0.2,0-0.3,0-0.5,0c-4.7,0-9.4-2.6-12.8-5.7c-2.7-2.4-4.8-5.7-7.3-8.4
				c-0.4-0.4-0.1-1,0.4-1c0,0,0,0,0,0c0.4,0,0.9,0,1.3,0c2.2,0,4.8-0.4,7-1.1c4.3-1.5,8.6-3.2,12.9-3.5
				C-116.2,50.8-115.6,50.8-115,50.8 M-115,48.8l0,2L-115,48.8c-0.7,0-1.3,0-1.9,0.1c-3.9,0.3-7.6,1.6-11.2,2.9
				c-0.7,0.3-1.5,0.5-2.2,0.8c-1.8,0.6-4.1,1-6.3,1c-0.4,0-0.8,0-1.2,0c0,0-0.1,0-0.2,0c-1,0-2,0.6-2.4,1.5
				c-0.4,0.9-0.2,2.1,0.5,2.8c0.9,1,1.7,2.1,2.7,3.2c1.5,1.9,3,3.8,4.8,5.4c2.6,2.3,7.9,6.2,14.2,6.2c0.2,0,0.4,0,0.5,0
				c0.6,0,1.3-0.1,2.1-0.3c0.8-0.2,1.4-0.8,1.6-1.6c0.3-1.9,0.9-3.6,1.7-5.2c0.7-1.3,1.6-2.5,2.6-3.7c0.2-0.2,0.3-0.4,0.4-0.7
				c0.3-0.1,0.5-0.2,0.7-0.4c2.1-2,4.6-3.6,6.9-5.1c0.6-0.4,0.9-1,1-1.7c0-0.7-0.3-1.3-0.9-1.7C-104.8,50.1-109.8,48.8-115,48.8
				L-115,48.8z"/>
		</g>
		<g>
			<path class="st6" d="M-106.3,99.7c-0.2,0-0.4,0-0.5-0.1c-0.7-0.2-1.1-0.8-1.4-1.2l-0.1-0.1c-1.3-1.6-2.2-3.4-3.1-5.2l-0.2-0.3
				c-2.3-4.6-3.7-9.6-4.3-14.7c-0.3-3.3-0.3-6,0.2-8.4c0.4-1.9,1-3.5,1.8-5.1c0.9-1.6,2-3.1,3.4-4.6c0.4-0.4,0.9-0.9,1.4-1.3
				c2.2-1.9,4.6-3.5,6.9-4.9c0.6-0.4,1.2-0.7,1.7-1c4.2-2.5,8.6-5.2,11.5-9.1c0.2-0.3,0.4-0.5,0.7-0.6c0.2-0.1,0.4-0.1,0.7-0.1
				c0.9,0,1.7,0.7,1.8,1.6c0.2,1.8,0.6,3.6,0.9,5.4c0.6,2.9,1.2,6,1.2,8.9c0.2,7-2,13.1-6.2,17.7c-1,1.1-2.3,2.2-3.8,3.3
				c-1.3,0.9-2.6,1.7-3.9,2.6c-2.7,1.7-5.3,3.3-7.3,5.4c-0.3,0.3-0.6,0.6-0.9,0.7c-0.3,0.1-0.5,0.2-0.8,0.2c-0.5,0-1.3-0.2-1.9-1.4
				c-0.9-1.8-0.9-5.3,0.2-9c-0.8,2-1.2,4-1.2,6.1c0.2,4.9,1.7,9.3,4.3,12.3c0.4,0.5,0.5,1.1,0.2,1.7
				C-105.1,99.3-105.7,99.7-106.3,99.7L-106.3,99.7z"/>
			<path class="st7" d="M-87.4,44.1c0.4,0,0.7,0.3,0.8,0.7c0.6,4.6,2.1,9.5,2.2,14.2c0.2,6.3-1.6,12.4-5.9,17
				c-1.1,1.2-2.3,2.2-3.7,3.2c-3.8,2.7-8.3,4.8-11.4,8.1c-0.2,0.2-0.4,0.4-0.6,0.5c-0.1,0.1-0.3,0.1-0.4,0.1
				c-2.1,0-2.6-8.6,2.1-14.7c1-1.3,2.1-2.6,3.2-3.9c0.2-0.2,0-0.4-0.2-0.4c0,0-0.1,0-0.1,0c0,0,0,0-0.1,0c-1,0.9-2.1,1.8-3,2.8
				c-3.6,3.6-6,7.8-5.8,13c0.1,4.5,1.6,9.5,4.6,12.9c0.4,0.4,0,1-0.5,1c-0.1,0-0.1,0-0.2,0c-0.4-0.2-0.8-0.6-1.1-1
				c-1.3-1.6-2.2-3.5-3.1-5.3c-2.2-4.5-3.7-9.3-4.2-14.3c-0.3-2.7-0.3-5.5,0.2-8.1c0.3-1.6,0.9-3.3,1.7-4.8c0.9-1.6,2-3.1,3.3-4.4
				c0.4-0.4,0.9-0.8,1.3-1.2c2.1-1.8,4.4-3.4,6.8-4.8c4.9-3,10.1-5.8,13.5-10.4c0.1-0.1,0.2-0.2,0.3-0.3
				C-87.6,44.1-87.5,44.1-87.4,44.1 M-87.4,42.1c-0.4,0-0.8,0.1-1.1,0.2c-0.4,0.2-0.8,0.5-1.1,0.9c-2.8,3.8-6.9,6.2-11.2,8.8
				c-0.6,0.3-1.2,0.7-1.7,1c-2.4,1.5-4.9,3.1-7.1,5c-0.5,0.4-1,0.9-1.4,1.3c-1.5,1.5-2.6,3.1-3.6,4.8c-0.9,1.6-1.5,3.4-1.9,5.4
				c-0.5,2.5-0.5,5.3-0.2,8.7c0.5,5.2,2,10.3,4.4,15l0.2,0.3c0.9,1.8,1.8,3.7,3.2,5.3l0.1,0.1c0.3,0.4,0.9,1.2,1.9,1.5
				c0.3,0.1,0.6,0.1,0.8,0.1c1,0,2-0.6,2.4-1.6c0.4-0.9,0.3-2-0.4-2.8c-1.5-1.7-2.7-4.1-3.4-6.7c0.5,0.2,0.9,0.3,1.2,0.3
				c0.4,0,0.8-0.1,1.2-0.3c0.4-0.2,0.9-0.5,1.3-1c1.9-2,4.4-3.6,7.1-5.3c1.3-0.8,2.7-1.7,4-2.6c1.6-1.1,2.9-2.3,4-3.4
				c4.4-4.8,6.6-11.2,6.5-18.4c-0.1-3-0.7-6.1-1.3-9.1c-0.4-1.9-0.7-3.6-0.9-5.3C-84.8,43.1-86,42.1-87.4,42.1L-87.4,42.1z"/>
		</g>
	</g>
	<radialGradient id="SVGID_2_" cx="80" cy="80.005" r="80" gradientUnits="userSpaceOnUse">
		<stop  offset="0" style="stop-color:#AAAFFF;stop-opacity:0.5"/>
		<stop  offset="1" style="stop-color:#FFFFFF"/>
	</radialGradient>
	<circle class="st8" cx="80" cy="80" r="80"/>
	<path class="st9" d="M112.2,64.9c0,2.9-0.9,5.7-2.4,8.2c-0.9,1.3-2,2.4-3.3,3.2l0,0c0,0-0.1,0.1-0.1,0.1c-2.4,2.3-4.9,5.2-4.9,8.5
		c0,6-3,7.7-3.4,7.9c-0.2,0.1-0.4,0.1-0.6,0.1c-0.7,0-1.3-0.6-1.3-1.3c0-2.4,0-3.3-4.8-6.9c-4.5-3.3-3.4-9-2.5-11.6
		c-0.8-0.7-1.5-1.4-2.2-2.1c-3.7-3.6-8-3-16.6-1.8l-1.8,0.3c-3.9,0.5-6.8-0.2-8.7-2.2c-3-3.2-2.3-8.3-2-9.8c0.1-0.3,0.7-3.1,1.1-4.2
		c0.9-2.6,2.4-4.9,4.2-6.9c2.2-2.3,5.7-3.9,10.5-4.9c4-0.9,8-1.5,12.1-1.7c0.5,0,1,0,1.5,0c6.2,0,11.7,2.1,17.7,6.8
		c2.9,2.2,5.1,5.2,6.1,8.7C111.8,58.3,112.2,61.6,112.2,64.9z"/>
	<path class="st7" d="M111,55.1c-1-3.5-3.2-6.6-6.1-8.7c-6-4.7-11.5-6.8-17.7-6.8c-0.5,0-1,0-1.5,0c-4.1,0.3-8.1,0.9-12.1,1.7
		c-4.8,1-8.4,2.6-10.5,4.9c-1.9,2-3.3,4.3-4.2,6.9c-0.4,1.1-1.1,3.9-1.1,4.2c-0.3,1.5-1,6.6,2,9.8c1.9,2,4.9,2.8,8.7,2.2l1.8-0.3
		c8.6-1.2,12.9-1.8,16.6,1.8c0.7,0.7,1.4,1.4,2.2,2.1c-0.8,2.6-1.9,8.3,2.5,11.6c4.8,3.6,4.8,4.6,4.8,6.9c0,0.7,0.6,1.3,1.3,1.3
		c0.2,0,0.4,0,0.6-0.1c0.4-0.2,3.4-1.9,3.4-7.9c0-3.3,2.4-6.1,4.9-8.5c0,0,0.1-0.1,0.1-0.1l0,0c1.3-0.8,2.4-1.9,3.3-3.2
		c1.6-2.4,2.4-5.3,2.4-8.2C112.2,61.6,111.8,58.3,111,55.1z M98.8,84.9c0,1.1-0.1,2.2-0.5,3.3c-0.6-1.6-2.1-3.2-5.4-5.7
		c-2.7-2-2.5-5.3-1.9-7.6c2.4,1.8,5.2,3.1,8.8,3.1c0.5,0,1,0,1.6-0.1C99.9,80,98.8,82.3,98.8,84.9z M107.5,71.7
		c-0.9,1.4-2.3,2.5-3.8,3.2C97,76.7,93.3,73.7,88.5,69c-4.6-4.5-10-3.8-18.8-2.5l-1.8,0.3c-3,0.4-5.1-0.1-6.4-1.4
		c-1.7-1.8-1.8-5-1.3-7.4c0.2-0.8,0.7-3.1,1-3.9c0.8-2.2,2-4.3,3.6-6c1.8-1.9,4.9-3.3,9.1-4.1c3.9-0.9,7.8-1.4,11.7-1.7
		c6.3-0.3,11.4,1.5,17.5,6.2c2.5,1.8,4.3,4.4,5.2,7.3c0.8,2.9,1.2,6,1.1,9C109.5,67.3,108.8,69.6,107.5,71.7z"/>
	<path id="Shape_9_" class="st7" d="M61.5,62.2h-2.7c-0.7,0-1.3-0.6-1.3-1.3s0.6-1.3,1.3-1.3h2.7c0.7,0,1.3-0.6,1.3-1.3
		s0.6-1.3,1.3-1.3c0.7,0,1.3,0.6,1.3,1.3C65.5,60.4,63.7,62.2,61.5,62.2z"/>
	<path id="Shape_10_" class="st7" d="M64.2,69.4c-0.7,0-1.3-0.6-1.3-1.3v-1.9c0-0.7,0.6-1.3,1.3-1.3c0.7,0,1.3,0.6,1.3,1.3v1.9
		C65.5,68.8,64.9,69.4,64.2,69.4z"/>
	<path id="Shape_11_" class="st7" d="M73.5,63.6h-1.3c-2.2,0-4-1.8-4-4v-1.3c0-2.2,1.8-4,4-4h1.3c0.7,0,1.3,0.6,1.3,1.3
		s-0.6,1.3-1.3,1.3h-1.3c-0.7,0-1.3,0.6-1.3,1.3v1.3c0,0.7,0.6,1.3,1.3,1.3h1.3c0.7,0,1.3,0.6,1.3,1.3C74.8,63,74.2,63.6,73.5,63.6z
		"/>
	<path id="Shape_12_" class="st7" d="M65.5,54.2h-5.2c-0.7,0-1.3-0.6-1.3-1.3s0.6-1.3,1.3-1.3h5.2c0.7,0,1.3,0.6,1.3,1.3
		S66.2,54.2,65.5,54.2z"/>
	<path id="Shape_13_" class="st7" d="M72.2,51.6c-2.2,0-4-1.8-4-4v-3.7c0-0.7,0.6-1.3,1.3-1.3c0.7,0,1.3,0.6,1.3,1.3v3.7
		c0,0.7,0.6,1.3,1.3,1.3s1.3,0.6,1.3,1.3S72.9,51.6,72.2,51.6z"/>
	<path id="Shape_14_" class="st7" d="M78.8,60.9h-1.3c-0.7,0-1.3-0.6-1.3-1.3c0-0.7,0.6-1.3,1.3-1.3h1.3c0.7,0,1.3-0.6,1.3-1.3v-2.7
		c0-0.7,0.6-1.3,1.3-1.3c0.7,0,1.3,0.6,1.3,1.3v2.7C82.8,59.1,81,60.9,78.8,60.9z"/>
	<path id="Shape_15_" class="st7" d="M85.5,54.2c-0.7,0-1.3-0.6-1.3-1.3v-1.3c0-0.7-0.6-1.3-1.3-1.3h-2.7c-0.7,0-1.3,0.6-1.3,1.3
		v1.3c0,0.7-0.6,1.3-1.3,1.3s-1.3-0.6-1.3-1.3v-1.3c0-2.2,1.8-4,4-4h2.7c2.2,0,4,1.8,4,4v1.3C86.8,53.6,86.2,54.2,85.5,54.2z"/>
	<path id="Shape_16_" class="st7" d="M78.8,44.9c-0.7,0-1.3-0.6-1.3-1.3v-1.3c0-0.7,0.6-1.3,1.3-1.3c0.7,0,1.3,0.6,1.3,1.3v1.3
		C80.2,44.3,79.6,44.9,78.8,44.9z"/>
	<path id="Shape_17_" class="st7" d="M84.2,44.9c-0.7,0-1.3-0.6-1.3-1.3V41c0-0.7,0.6-1.3,1.3-1.3c0.7,0,1.3,0.6,1.3,1.3v2.5
		C85.5,44.3,84.9,44.9,84.2,44.9z"/>
	<path id="Shape_18_" class="st7" d="M92.2,48.9h-2.7c-0.7,0-1.3-0.6-1.3-1.3V41c0-0.7,0.6-1.3,1.3-1.3c0.7,0,1.3,0.6,1.3,1.3v5.2
		h1.3c0.7,0,1.3,0.6,1.3,1.3S92.9,48.9,92.2,48.9z"/>
	<path id="Shape_19_" class="st7" d="M81.5,68.4c-0.7,0-1.3-0.6-1.3-1.3v-2.1c0-0.7,0.6-1.3,1.3-1.3c0.7,0,1.3,0.6,1.3,1.3V67
		C82.8,67.8,82.2,68.4,81.5,68.4z"/>
	<path id="Shape_20_" class="st7" d="M90.8,64.9h-1.3c-2.2,0-4-1.8-4-4v-1.3c0-0.7,0.6-1.3,1.3-1.3c0.7,0,1.3,0.6,1.3,1.3v1.3
		c0,0.7,0.6,1.3,1.3,1.3h1.3c0.7,0,1.3,0.6,1.3,1.3C92.2,64.3,91.6,64.9,90.8,64.9z"/>
	<path id="Shape_21_" class="st7" d="M96.2,59.6h-1.3c-2.2,0-4-1.8-4-4s1.8-4,4-4h1.3c0.7,0,1.3,0.6,1.3,1.3s-0.6,1.3-1.3,1.3h-1.3
		c-0.7,0-1.3,0.6-1.3,1.3s0.6,1.3,1.3,1.3h1.3c0.7,0,1.3,0.6,1.3,1.3S96.9,59.6,96.2,59.6z"/>
	<path id="Shape_22_" class="st7" d="M98.8,50.2c-0.7,0-1.3-0.6-1.3-1.3v-4c0-0.7,0.6-1.3,1.3-1.3s1.3,0.6,1.3,1.3v4
		C100.2,49.6,99.6,50.2,98.8,50.2z"/>
	<path id="Shape_23_" class="st7" d="M101.5,55.6c-0.7,0-1.3-0.6-1.3-1.3c0-0.7,0.6-1.3,1.3-1.3c0.7,0,1.3-0.6,1.3-1.3v-4
		c0-0.7,0.6-1.3,1.3-1.3s1.3,0.6,1.3,1.3v4C105.5,53.8,103.7,55.6,101.5,55.6z"/>
	<path id="Shape_24_" class="st7" d="M98.8,66.2h-1.3c-0.7,0-1.3-0.6-1.3-1.3c0-0.7,0.6-1.3,1.3-1.3h1.3c0.7,0,1.3-0.6,1.3-1.3v-2.7
		c0-0.7,0.6-1.3,1.3-1.3c0.7,0,1.3,0.6,1.3,1.3v2.7C102.8,64.4,101,66.2,98.8,66.2z"/>
	<path id="Shape_25_" class="st7" d="M94.8,76.9c-0.7,0-1.3-0.6-1.3-1.3v-2.7c0-2.2,1.8-4,4-4h4c0.7,0,1.3,0.6,1.3,1.3
		c0,0.7-0.6,1.3-1.3,1.3h-4c-0.7,0-1.3,0.6-1.3,1.3v2.7C96.2,76.3,95.6,76.9,94.8,76.9z"/>
	<path id="Shape_26_" class="st7" d="M110.8,63.6h-3.9c-0.7,0-1.3-0.6-1.3-1.3c0-0.7,0.6-1.3,1.3-1.3h3.9c0.7,0,1.3,0.6,1.3,1.3
		C112.1,63,111.5,63.6,110.8,63.6z"/>
	<path id="Shape_27_" class="st7" d="M110.6,68.9h-3.7c-0.7,0-1.3-0.6-1.3-1.3c0-0.7,0.6-1.3,1.3-1.3h3.7c0.7,0,1.3,0.6,1.3,1.3
		C111.9,68.3,111.3,68.9,110.6,68.9z"/>
	<path class="st7" d="M93,35.9c-0.1,0-0.2,0-0.3-0.1C92.8,35.8,92.9,35.9,93,35.9L93,35.9z"/>
	<circle class="st10" cx="139.3" cy="44.9" r="6"/>
	<circle class="st11" cx="125.6" cy="141.5" r="6"/>
	<circle class="st12" cx="41.1" cy="19.2" r="4.5"/>
	<path class="st9" d="M105.9,101.1c0.5,0,1-0.2,1.4-0.6c0.4-0.4,0.6-0.9,0.6-1.4s-0.2-1-0.6-1.4c-0.4-0.4-0.9-0.6-1.4-0.6
		c-0.5,0-1,0.2-1.4,0.6c-0.4,0.4-0.6,0.9-0.6,1.4s0.2,1,0.6,1.4C104.8,100.9,105.3,101.1,105.9,101.1z"/>
	<g>
		<path class="st13" d="M31.4,118.7c-1,0-1.8,0.8-1.8,1.8v2.5c0,1,0.8,1.8,1.8,1.8s1.8-0.8,1.8-1.8v-2.5
			C33.2,119.5,32.4,118.7,31.4,118.7z"/>
		<path class="st13" d="M31.4,128.7c-1,0-1.8,0.8-1.8,1.8v2.5c0,1,0.8,1.8,1.8,1.8s1.8-0.8,1.8-1.8v-2.5
			C33.2,129.5,32.4,128.7,31.4,128.7z"/>
		<path class="st13" d="M37.7,124.9h-2.5c-1,0-1.8,0.8-1.8,1.8s0.8,1.8,1.8,1.8h2.5c1,0,1.8-0.8,1.8-1.8S38.6,124.9,37.7,124.9z"/>
		<path class="st13" d="M27.7,124.9h-2.5c-1,0-1.8,0.8-1.8,1.8s0.8,1.8,1.8,1.8h2.5c1,0,1.8-0.8,1.8-1.8S28.6,124.9,27.7,124.9z"/>
	</g>
</g>
<g id="Layer_2">
	<path class="st7" d="M101.8,125c-0.1,0-0.1,0-0.1,0l-30.4,0c-1,0-1.6-0.4-2-0.8c-0.8-0.8-0.8-1.9-0.8-2v-12.7l-1.6,0.8
		c-3.6,2.2-8.1,2.1-8.3,2.1c-11.7-0.5-11.6-11.5-11.6-11.6c0.2-11.8-8-19.5-8.1-19.6c-0.5-0.5-0.7-1.4-0.8-1.8
		c-0.3-1,0.3-1.9,0.9-2.3c0.7-0.6,1.5-1.6,1.6-1.6c5.5-5.9,7-11.6,7-11.7c0.7-2.8,1.3-4.4,1.3-4.4c2.4-7.8,7-14.3,13.1-18.8
		c14.3-10.4,34.8-9.1,47.6,3.1c6.9,6.6,11.1,16.4,11.1,26.4c0.1,14.8-9.4,23.3-9.8,23.7c-0.4,0.4-1,0.3-1.4-0.1
		c-0.4-0.4-0.3-1,0.1-1.4c0.1-0.1,9.2-8.3,9.2-22.2c0-9.4-4-18.7-10.5-24.9c-12.1-11.5-31.4-12.7-45-2.9
		C57.3,46.5,53,52.7,50.7,60.1c0,0.1-0.6,1.6-1.3,4.2c-0.1,0.3-1.6,6.3-7.5,12.5c0,0-1,1.1-1.8,1.8L40,78.8
		c-0.1,0.1-0.1,0.1-0.1,0.2c0.1,0.3,0.2,0.7,0.3,0.8c0.3,0.3,8.9,8.3,8.7,21.1c0,0.4-0.1,9.2,9.7,9.6c0,0,4.1,0.1,7.3-1.8l4.6-2.5
		v16c0,0.8,0.6,0.8,0.8,0.8h30.5c0.2,0,0.5,0,0.6-0.2c0.1-0.1,0.2-0.4,0.2-0.6V109c0-0.3,0.1-3.1,0.4-4.2c0.1-0.5,0.7-0.9,1.2-0.7
		c0.5,0.1,0.9,0.7,0.7,1.2c-0.2,0.7-0.3,2.7-0.3,3.8v13.1c0,1.1-0.4,1.7-0.8,2.1C103,124.9,102.1,125,101.8,125z"/>
</g>
</svg>
