<svg version="1.1" id="Layer_1" xmlns="http://www.w3.org/2000/svg" x="0px" y="0px" viewBox="0 0 555 660">
<style type="text/css">
	.st0{fill:#EDE8F7;}
</style>
<path class="st0" d="M538.6,534.6h-5.5h-15.6c4.4,0,8.2-1.8,11.1-4.7s4.6-6.9,4.6-11.3V21.3c0-11.7-9.4-21.3-20.9-21.3H21.6
	C10.1,0,0.7,9.6,0.7,21.3v36.2c0,8.8,7,16,15.6,16h5.9c11.5,0,20.9,9.6,20.9,21.3c0,5.9-2.3,11.2-6.1,15c-3.7,3.8-9,6.3-14.8,6.3
	h-5.9c-4.4,0-8.2,1.8-11.1,4.7c-2.9,2.9-4.6,6.9-4.6,11.3v506.7c0,11.7,9.4,21.3,20.9,21.3h490.6c10.8,0,19.6-8.3,20.8-18.9
	c0.1-0.7,0.1-1.5,0.1-2.3v-13.6c0-8.8-7-16-15.6-16h-4.9c-11.5,0-20.9-9.6-20.9-21.3c0-5.9,2.3-11.2,6.1-15s9-6.3,14.8-6.3h20.5h5.5
	c4.4,0,8.2-1.8,11.1-4.7s4.6-6.9,4.6-11.3C554.3,541.7,547.2,534.6,538.6,534.6z"/>
</svg>
