<?xml version="1.0" encoding="utf-8"?>
<!-- Generator: Adobe Illustrator 19.2.1, SVG Export Plug-In . SVG Version: 6.00 Build 0)  -->
<svg version="1.1" id="Layer_1" xmlns="http://www.w3.org/2000/svg" xmlns:xlink="http://www.w3.org/1999/xlink" x="0px" y="0px"
	 viewBox="0 0 64 64" style="enable-background:new 0 0 64 64;" xml:space="preserve">
<style type="text/css">
	.st0{fill:#FFFFFF;}
</style>
<path class="st0" d="M7.6,9.5C4.5,9.5,2,12,2,15.1c0,0,0,0,0,0c0,0,0,0,0,0v33.8c0,3.1,2.5,5.6,5.6,5.6h48.8c3.1,0,5.6-2.5,5.6-5.6
	V15.1c0,0,0,0,0,0c0,0,0,0,0,0c0-3.1-2.5-5.6-5.6-5.6H7.6z M10.9,12h42.3L32,26.7L10.9,12z M6.7,12.1L32,29.8l25.3-17.6
	c1.3,0.4,2.2,1.5,2.2,3c0,0.3-0.3,0.8-0.7,1.2c-0.4,0.4-0.8,0.7-0.8,0.7l0,0L32,35.5L6,17l0,0c0,0-0.4-0.3-0.8-0.7
	c-0.4-0.4-0.7-1-0.7-1.2C4.5,13.7,5.4,12.5,6.7,12.1z M4.5,19.1L4.5,19.1L4.5,19.1L4.5,19.1l3.8,2.7V52H7.6c-1.7,0-3.1-1.4-3.1-3.1
	V19.1z M59.5,19.1v29.8c0,1.7-1.4,3.1-3.1,3.1h-0.6V21.7L59.5,19.1L59.5,19.1L59.5,19.1z M10.8,23.5l21.3,15l21.3-15V52H10.8V23.5z"
	/>
</svg>
