<?xml version="1.0" encoding="utf-8"?>
<!-- Generator: Adobe Illustrator 19.2.1, SVG Export Plug-In . SVG Version: 6.00 Build 0)  -->
<svg version="1.1" id="Layer_1" xmlns="http://www.w3.org/2000/svg" xmlns:xlink="http://www.w3.org/1999/xlink" x="0px" y="0px"
	 viewBox="0 0 64 64" style="enable-background:new 0 0 64 64;" xml:space="preserve">
<style type="text/css">
	.st0{fill:#3cc382;}
</style>
<path class="st0" d="M32,2C15.4,2,2,15.4,2,32c0,5.3,1.5,10.3,3.9,14.6L2,60.3C1.9,61,2.3,61.8,3,62C3.2,62,3.4,62,3.6,62l14.3-3.5
	c4.2,2.2,9,3.6,14.1,3.6c16.6,0,30-13.4,30-30S48.6,2,32,2z M32,4.6c15.1,0,27.4,12.2,27.4,27.4S47.1,59.4,32,59.4
	c-4.9,0-9.4-1.3-13.4-3.5c-0.3-0.2-0.6-0.2-1-0.1L5.2,58.9l3.4-12c0.1-0.3,0.1-0.7-0.1-1C6,41.8,4.6,37.1,4.6,32
	C4.6,16.9,16.9,4.6,32,4.6z M21.1,16.3c-0.8,0-2,0.3-3,1.4c-0.6,0.6-3,3-3,7.2c0,4.4,3,8.2,3.4,8.7h0v0c0,0,0.5,0.7,1.1,1.6
	c0.7,0.9,1.6,2,2.8,3.3c2.4,2.5,5.7,5.3,9.8,7.1c1.9,0.8,3.4,1.3,4.5,1.6c2.1,0.7,4,0.6,5.4,0.3c1.1-0.2,2.3-0.7,3.4-1.4
	c1.2-0.7,2.3-1.7,2.8-3.1c0.4-1,0.5-1.9,0.6-2.7c0-0.4,0-0.7,0-1c0-0.3,0-0.5-0.3-1c-0.6-1-1.3-1-2-1.4c-0.4-0.2-1.5-0.8-2.7-1.3
	c-1.1-0.5-2.1-1-2.7-1.2c-0.4-0.1-0.9-0.3-1.5-0.3s-1.3,0.6-1.7,1.1c-0.4,0.5-1.8,2.3-2.3,2.8c0,0,0,0-0.1-0.1
	c-0.6-0.3-1.2-0.5-2.3-1c-1-0.5-2.3-1.3-3.7-2.5v0c-2.1-1.8-3.5-4.1-4-4.9c0,0,0,0,0.1-0.1l0,0c0.5-0.5,0.9-1,1.2-1.4
	c0.5-0.6,0.7-1.1,0.9-1.5c0.5-0.9,0.2-2-0.1-2.5v0c0,0-0.1-0.3-0.3-0.8c-0.2-0.4-0.4-1-0.7-1.6c-0.5-1.2-1-2.5-1.4-3.3v0
	c-0.4-0.9-0.9-1.6-1.6-1.9c-0.7-0.3-1.3-0.2-1.3-0.2h0C22.2,16.4,21.6,16.3,21.1,16.3z M21.1,19c0.5,0,1,0,1.4,0c0.4,0,0.4,0,0.3,0
	c-0.1,0,0-0.1,0.3,0.5c0.3,0.8,0.9,2.1,1.4,3.2c0.2,0.6,0.5,1.1,0.7,1.6c0.2,0.4,0.3,0.7,0.4,0.9v0l0,0c0.1,0.2,0.1,0.1,0.1,0.2
	c-0.3,0.5-0.3,0.7-0.6,1c-0.4,0.5-0.9,1-1.1,1.3c-0.2,0.2-0.6,0.5-0.8,1.1c-0.2,0.6-0.1,1.4,0.2,2c0.5,0.8,2.1,3.4,4.5,5.6
	c1.6,1.4,3,2.3,4.2,2.9c1.2,0.6,2.1,1,2.3,1.1c0.5,0.2,1,0.4,1.7,0.4c0.6-0.1,1.2-0.5,1.5-0.9l0,0c0.5-0.5,1.8-2.1,2.5-3.1
	c0,0,0,0,0.2,0.1v0h0c0.1,0,1.4,0.6,2.5,1.1s2.3,1.1,2.6,1.3c0.5,0.3,0.8,0.4,0.9,0.4c0,0.1,0,0.2,0,0.4c0,0.5-0.2,1.2-0.5,2
	c-0.1,0.4-0.9,1.2-1.8,1.7c-0.9,0.6-2,1-2.4,1c-1.2,0.2-2.7,0.2-4.3-0.3c-1.1-0.3-2.5-0.8-4.3-1.6c-3.6-1.5-6.7-4.2-8.9-6.5
	c-1.1-1.2-2-2.2-2.6-3c-0.6-0.8-0.9-1.2-1.1-1.5l0,0c-0.4-0.5-2.9-4-2.9-7.1c0-3.3,1.5-4.6,2.3-5.5C20.4,19,20.9,19,21.1,19z"/>
</svg>
